<?xml version="1.0" encoding="iso-8859-1"?><svg viewBox="0 0 512 512" xmlns="http://www.w3.org/2000/svg" xmlns:xlink="http://www.w3.org/1999/xlink"><style>:root>svg{display:none}:root>svg:target{display:block}</style><svg viewBox="0 0 480 480" id="car" xmlns="http://www.w3.org/2000/svg"><path d="M473.6 168.107l-89.912-17.984c.088-2.064.312-4.088.312-6.176C383.941 64.418 319.422-.006 239.893.053c-67.985.05-126.672 47.641-140.765 114.149l-.648-.392-23.56 39.072-68.656 15.249A8 8 0 000 175.947v104a7.999 7.999 0 006.864 7.92l49.192 7.032c0 .352-.056.696-.056 1.048.154 26.509 21.768 47.875 48.277 47.721 23.211-.134 43-16.858 47.003-39.721h96.664l41.04 151.864c3.619 14.181 16.381 24.112 31.016 24.136 17.673-.009 31.993-14.343 31.984-32.016a31.998 31.998 0 00-1.016-7.984l-36.736-136h6.488c4.418 26.112 29.168 43.698 55.28 39.28 26.112-4.418 43.698-29.168 39.28-55.28H472a8 8 0 008-8v-104a8 8 0 00-6.4-7.84zM16 199.947h24v8H16v-8zm43.088 79.2L16 273.011v-9.064h52.32a48.06 48.06 0 00-9.232 15.2zm44.912 48.8c-17.673 0-32-14.327-32-32 0-17.673 14.327-32 32-32s32 14.327 32 32c0 17.673-14.327 32-32 32zm136-40h-88.72c-4.219-25.97-28.692-43.603-54.663-39.384-.206.033-.412.068-.617.104v-.72H16v-24h32a8 8 0 008-8v-24a8 8 0 00-8-8H16v-1.6l65.736-14.6a8.001 8.001 0 005.112-3.68l9.384-15.552C98.733 226.148 162.327 287.823 240 287.947c1.208 0 2.4-.152 3.576-.184l.048.184H240zm0-16c-70.692 0-128-57.308-128-128s57.308-128 128-128 128 57.308 128 128c-.084 70.657-57.342 127.916-128 128zm19.784 14.48c10.599-1.467 21-4.119 31.008-7.904l18.52 68.552-30.4 10.136-19.128-70.784zm75.72 157.6c2.143 8.574-3.07 17.261-11.644 19.404-8.574 2.143-17.261-3.07-19.404-11.644l-21.368-79.08 30.4-10.136 22.016 81.456zM368 327.947c-17.673 0-32-14.327-32-32 0-17.673 14.327-32 32-32 17.673 0 32 14.327 32 32 0 17.673-14.327 32-32 32zm96-56h-54.496a48.278 48.278 0 00-5.824-8H464v8zm0-48h-16v-24h16v24zm0-40h-24a8 8 0 00-8 8v40a8 8 0 008 8h24v8h-88v.72c-25.913-4.56-50.616 12.75-55.176 38.663-.036.206-.071.411-.104.617h-10.808l-4.312-16a144.193 144.193 0 0076.512-105.856L464 182.499v1.448z"/><path d="M240 23.947c-66.274 0-120 53.726-120 120s53.726 120 120 120 120-53.726 120-120c-.075-66.243-53.757-119.925-120-120zm0 224c-57.438 0-104-46.562-104-104s46.562-104 104-104 104 46.562 104 104c-.066 57.41-46.59 103.933-104 104z"/><path d="M327.352 130.963a100.739 100.739 0 00-60.2-74.4l-6.304 14.704a84.621 84.621 0 0150.72 62.304 74.16 74.16 0 01-25.88 68.416l10.752 11.856a89.704 89.704 0 0030.912-82.88z"/><circle cx="104" cy="295.947" r="16"/><circle cx="368" cy="295.947" r="16"/></svg><svg data-name="Layer 1" viewBox="0 0 512 512" id="car-service" xmlns="http://www.w3.org/2000/svg"><path d="M496.54 212.733l-46.74-4.491a201.125 201.125 0 00-23.761-56.263l29.675-35.866a8 8 0 00-.518-10.759l-49.81-49.811a8 8 0 00-10.763-.5l-35.845 29.681a195.45 195.45 0 00-56.29-23.715L298 14.322A8.078 8.078 0 00290.033 7h-68.059a8.078 8.078 0 00-7.963 7.322l-4.491 46.643a195.566 195.566 0 00-56.291 23.742l-35.841-29.674a8 8 0 00-10.76.509l-49.811 49.8a8 8 0 00-.505 10.762l29.7 35.866a200.988 200.988 0 00-23.7 56.272l-46.85 4.491A8.2 8.2 0 008 220.7v70.6a8.2 8.2 0 007.461 7.963l46.708 4.488a195.6 195.6 0 0023.77 56.288l-29.656 35.848a8 8 0 00.519 10.759l49.81 49.8a8 8 0 0010.763.5l35.866-29.7a200.964 200.964 0 0056.266 23.709l4.5 46.627a8 8 0 007.963 7.233h68.063a8 8 0 007.963-7.232l4.5-46.627a200.959 200.959 0 0056.264-23.71l35.865 29.7a8 8 0 0010.76-.5l49.8-49.8a8 8 0 00.5-10.759L426 360.046a195.446 195.446 0 0023.718-56.292l46.825-4.491A8.2 8.2 0 00504 291.3v-70.6a8.2 8.2 0 00-7.46-7.967zm-8.54 71.3l-45.32 4.346a8.131 8.131 0 00-7.165 6.273 179.9 179.9 0 01-26.015 61.577 8 8 0 00.48 9.522l28.751 34.733-39.509 39.5-34.737-28.767a8 8 0 00-9.489-.531 185.229 185.229 0 01-61.65 26 8 8 0 00-6.233 7.043l-4.347 45.092h-53.53l-4.347-45.092a8 8 0 00-6.232-7.043 185.26 185.26 0 01-61.651-26 8 8 0 00-9.486.531l-34.733 28.767-39.5-39.5 28.766-34.733a8 8 0 00.508-9.521A179.793 179.793 0 0176.6 294.654a8.265 8.265 0 00-7.28-6.274L24 284.038v-56.076l45.317-4.342a8.131 8.131 0 007.157-6.233 185.414 185.414 0 0126.046-61.658 8 8 0 00-.5-9.485L73.267 111.51l39.516-39.5 34.738 28.767a8.007 8.007 0 009.524.508 179.772 179.772 0 0161.575-25.962 8.1 8.1 0 006.273-7.141L229.24 23h53.527l4.346 45.182a8.051 8.051 0 006.274 7.1 179.849 179.849 0 0161.573 25.981 8 8 0 009.522-.5L399.215 72l39.5 39.512-28.763 34.738a8 8 0 00-.532 9.487 185.233 185.233 0 0125.99 61.65 8.266 8.266 0 007.271 6.232L488 227.962z"/><path d="M256.958 100.594c-85.691 0-155.406 69.715-155.406 155.406s69.715 155.406 155.406 155.406S412.364 341.691 412.364 256s-69.715-155.406-155.406-155.406zm0 294.812c-76.869 0-139.406-62.537-139.406-139.406s62.537-139.406 139.406-139.406S396.364 179.131 396.364 256s-62.538 139.406-139.406 139.406z"/><path d="M337.284 178.954A22.857 22.857 0 00316.15 164H198.756a22.857 22.857 0 00-21.134 14.954l-15.935 43.129-6.183 5.689A30.011 30.011 0 00145 250.435v79.071a8.662 8.662 0 008.262 8.494h41.192c4.418 0 7.546-4.075 7.546-8.494V309h108v20.506c0 4.419 3.125 8.494 7.544 8.494h41.192a8.664 8.664 0 008.264-8.494V248.77a30.059 30.059 0 00-9.28-21.487l-4.185-4.526zm-144.659 5.675a6.913 6.913 0 016.131-4.629H316.15a6.913 6.913 0 016.131 4.629L334.882 219H180.023zM186 322h-25v-13h25zm140 0v-13h25v13zm25-29H161v-42.565a13.909 13.909 0 015-10.528c.093-.079.249-.044.338-.127l5.33-4.78h171.013l3.379 3.5c.113.12.361.18.481.293A13.863 13.863 0 01351 248.77V293z"/><path d="M190.018 246h-3.56a20 20 0 000 40h3.56a20 20 0 000-40zm0 24h-3.56a4 4 0 010-8h3.56a4 4 0 010 8zM325.54 246h-3.56a20 20 0 000 40h3.56a20 20 0 000-40zm0 24h-3.56a4 4 0 010-8h3.56a4 4 0 010 8zM296 255a8 8 0 00-8-8h-63a8 8 0 00-8 8v23a8 8 0 008 8h63a8 8 0 008-8zm-17 15h-46v-7h46z"/></svg><svg viewBox="0 0 480.449 480.449" id="check" xmlns="http://www.w3.org/2000/svg"><path d="M379.124 67.347h-46.9v-5.3c-.1-17-13.9-30.8-30.9-30.7h-15.5c-10-25.4-38.7-37.9-64.1-27.9-12.8 5-22.9 15.1-27.9 27.9h-15.2c-16.8 0-30.4 13.6-30.4 30.4v5.7h-46.9c-22.8 0-41.1 18.9-41.1 41.7v330.4c0 22.5 18.2 40.8 40.8 40.9H379.124c22.5.2 41-17.9 41.1-40.5v-330.9c0-22.8-18.4-41.7-41.1-41.7zm-210.9-5.3c-.2-5.7 4.3-10.5 10-10.7H201.024c4.7 0 8.7-3.3 9.7-7.8 3.3-14.1 14.9-23.6 28.9-23.6 13.9 0 25.9 9.8 28.8 23.4 1 4.7 5 8 9.8 8h23c6-.1 10.9 4.7 10.9 10.7v39.3h-143.9v-39.3zm232 377.4c0 11.5-9.3 20.8-20.7 20.9h-278.2c-11.5.2-21-9-21.1-20.5V109.047c0-11.8 9.4-21.7 21.1-21.7h46.9v24.3c-.2 5.1 3.8 9.5 9 9.7h165c5.4.2 9.9-4.1 10-9.5v-24.5h46.9c11.8 0 21.1 10 21.1 21.7v330.4z"/><path d="M213.224 335.347h-86c-5.5 0-10 4.5-10 10v83c0 5.5 4.5 10 10 10h86c5.5 0 10-4.5 10-10v-83c0-5.5-4.5-10-10-10zm-10 83h-66v-63h66v63z"/><path d="M192.024 368.247c-4.1-3.5-10.3-3.1-13.9.9l-12.5 14.2-4.3-3.4c-4.3-3.5-10.6-2.8-14.1 1.5-3.3 4.4-2.6 10.7 1.8 14.2l11.8 9.4c4.2 3.3 10.2 2.8 13.8-1.2l18.6-21.5c3.6-4.2 3-10.5-1.2-14.1zM311.324 355.347h-62.1c-5.5 0-10 4.5-10 10s4.4 10 10 10h62.1c5.5 0 10-4.5 10-10s-4.5-10-10-10zM353.024 397.347h-103.8c-5.5 0-10 4.5-10 10s4.5 10 10 10h103.9c5.5 0 10-4.5 10-10s-4.5-10-10.1-10zM370.224 213.647l-23-10.4-20.5-32.6c-6.9-10.9-18.9-17.5-31.8-17.3h-79.5c-11.7-.1-22.7 5.3-29.8 14.5l-26.4 34.6-44.4 12.1c-13.3 3.6-22.6 15.7-22.6 29.4v17.4c0 16.9 13.8 31 30.7 31h1c5.1 14 19.2 25.4 35.7 25.4s30.6-11.4 35.7-25.4h86.3c5.1 14 19.2 25.4 35.7 25.4s30.6-11.4 35.7-25.4h4.5c16.9 0 30.7-14.1 30.7-31v-19.8c0-12-7.1-22.9-18-27.9zm-210.6 83.7c-9.8 0-17.8-8-17.8-17.8s8-17.8 17.8-17.8 17.8 8 17.8 17.8c0 9.9-8 17.8-17.8 17.8zm157.8 0c-9.8 0-17.8-8-17.8-17.8s8-17.8 17.8-17.8 17.8 8 17.8 17.8c-.1 9.9-8 17.8-17.8 17.8zm40.1-25h-3.1c-3.5-18-18.8-30.2-37-30.2s-33.6 12.2-37.1 30.2h-83.7c-3.3-17.8-19-30.6-37-30.4-17.9 0-33.4 12.5-37.1 30.1-5.7-.2-10.3-4.9-10.3-10.7v-17.4c0-4.8 3.2-9 7.8-10.2l47.7-13c2.1-.6 4-1.8 5.3-3.6l28.5-37.2c3.3-4.3 8.5-6.7 13.9-6.6h79.5c6-.1 11.6 2.9 14.8 8l22.1 35.2c1 1.6 2.6 2.9 4.3 3.7l25.7 11.6c3.8 1.7 6.2 5.5 6.2 9.6l.1 19.9c0 5.9-4.6 10.8-10.6 11z"/></svg><svg viewBox="0 0 512 512" id="note" xmlns="http://www.w3.org/2000/svg"><path d="M361.138 183.506H79.162c-4.142 0-7.5 3.357-7.5 7.5s3.358 7.5 7.5 7.5h281.977a7.5 7.5 0 10-.001-15zM368.638 260.364a7.5 7.5 0 00-7.5-7.5H79.162c-4.142 0-7.5 3.357-7.5 7.5s3.358 7.5 7.5 7.5h281.977a7.5 7.5 0 007.499-7.5zM283.165 329.724a7.5 7.5 0 00-7.5-7.5H79.162c-4.142 0-7.5 3.357-7.5 7.5s3.358 7.5 7.5 7.5h196.503a7.5 7.5 0 007.5-7.5zM79.162 391.582c-4.142 0-7.5 3.357-7.5 7.5s3.358 7.5 7.5 7.5H220.15c4.142 0 7.5-3.357 7.5-7.5s-3.358-7.5-7.5-7.5zM79.162 82.374h151.127c4.142 0 7.5-3.357 7.5-7.5s-3.358-7.5-7.5-7.5H79.162c-4.142 0-7.5 3.357-7.5 7.5s3.358 7.5 7.5 7.5zM79.162 131.75h151.127c4.142 0 7.5-3.357 7.5-7.5s-3.358-7.5-7.5-7.5H79.162c-4.142 0-7.5 3.357-7.5 7.5s3.358 7.5 7.5 7.5z"/><path d="M488.837 218.219a18.86 18.86 0 00-5.561-13.424c-7.402-7.4-19.445-7.4-26.847 0l-18.139 18.138c-5.762-1.964-12.404-.653-16.991 3.935L207.234 440.935a7.504 7.504 0 00-1.165 1.507l-27.264 46.438c-1.504 2.562-2.209 5.363-2.151 8.121H57.136c-10.462 0-18.973-8.511-18.973-18.973V33.973C38.163 23.511 46.674 15 57.136 15h240.25v89.247c0 15.165 12.338 27.503 27.503 27.503h89.248v69.417c0 4.143 3.358 7.5 7.5 7.5s7.5-3.357 7.5-7.5V124.25c0-1.989-.79-3.896-2.197-5.304L310.189 2.196A7.5 7.5 0 00304.886 0H57.136C38.403 0 23.163 15.24 23.163 33.973v444.055c0 18.732 15.24 33.973 33.973 33.973h338.027c18.733 0 33.973-15.24 33.973-33.973V332.75c0-4.143-3.358-7.5-7.5-7.5s-7.5 3.357-7.5 7.5v145.277c0 10.462-8.511 18.973-18.973 18.973H221.647l24.561-14.42a7.522 7.522 0 001.506-1.164L461.78 267.35a16.367 16.367 0 004.827-11.652c0-2.156-.411-4.248-1.197-6.188l17.867-17.867a18.863 18.863 0 005.56-13.424zM312.386 104.247V25.606l91.144 91.144h-78.641c-6.894 0-12.503-5.608-12.503-12.503zm107.65 183.633l-19.267-19.267 9.43-9.43 19.267 19.267zM242.412 465.505l-19.267-19.267L390.162 279.22l19.267 19.267zM192.001 497c-.122-.028-.328-.234-.352-.323a.746.746 0 01.092-.204l22.353-38.071 16.155 16.155-38.072 22.352c-.108.063-.176.087-.172.092h-.004zm259.173-240.258l-11.101 11.101-19.267-19.267 11.1-11.1a1.481 1.481 0 012.091 0l17.178 17.178c.357.357.433.766.433 1.044a1.453 1.453 0 01-.434 1.044zm21.496-35.707l-16.95 16.951-5.634-5.634 16.95-16.949a3.989 3.989 0 015.634 0c.752.752 1.167 1.752 1.167 2.816s-.414 2.064-1.167 2.816z"/></svg><svg viewBox="0 0 512 512" id="payment-method" xmlns="http://www.w3.org/2000/svg"><path d="M172.55 391.902c-.13-.64-.32-1.27-.57-1.88-.25-.6-.56-1.18-.92-1.72a9.57 9.57 0 00-1.24-1.52 9.57 9.57 0 00-1.52-1.24 9.87 9.87 0 00-1.73-.92c-.6-.25-1.23-.45-1.87-.57a9.847 9.847 0 00-3.9 0c-.64.12-1.27.32-1.88.57-.6.25-1.18.56-1.72.92-.55.36-1.06.78-1.52 1.24-.46.46-.88.97-1.24 1.52-.37.54-.67 1.12-.92 1.72a9.69 9.69 0 00-.57 1.88c-.13.64-.2 1.3-.2 1.95 0 .65.07 1.31.2 1.95.12.64.32 1.27.57 1.87.25.61.55 1.19.92 1.73.36.55.78 1.06 1.24 1.52.46.46.97.88 1.52 1.24.54.361 1.12.671 1.72.921.61.25 1.24.45 1.88.57.64.13 1.3.2 1.95.2.65 0 1.31-.07 1.95-.2.64-.12 1.27-.32 1.87-.57.61-.25 1.19-.561 1.73-.921a9.57 9.57 0 001.52-1.24c.46-.46.88-.97 1.24-1.52.36-.54.67-1.12.92-1.73a10.098 10.098 0 00.77-3.82c0-.65-.07-1.31-.2-1.95z"/><path d="M459.993 394.982a9.705 9.705 0 00-.121-.297c-9.204-21.537-30.79-29.497-56.336-20.772l-69.668 19.266c-4.028-12.198-14.075-22.578-28.281-27.85a11.876 11.876 0 00-.265-.094l-76.581-25.992c-6.374-8.239-26.34-29.321-63.723-29.321-26.125 0-49.236 17.922-62.458 37.457H10c-5.523 0-10 4.477-10 10v126.077c0 5.523 4.477 10 10 10h59.457c5.523 0 10-4.477 10-10v-8.634h27.883c5.523 0 10-4.477 10-10v-2.878c16.254 1.418 21.6 4.501 36.528 13.109 11.48 6.62 28.831 16.625 60.077 30.674.145.065.292.127.439.185 5.997 2.359 17.72 6.065 32.173 6.065 10.06 0 21.445-1.797 33.131-7.094l153.991-55.136c.274-.098.544-.208.808-.33 14.717-6.771 36.648-25.854 25.506-54.435zM59.457 473.455H20V367.378h39.457v106.077zm37.883-18.634H79.457v-87.443H97.34v87.443zm329.156-23.747l-153.922 55.111a12.33 12.33 0 00-.854.348c-21.437 9.852-41.814 3.954-49.8.849-30.182-13.581-46.291-22.87-58.061-29.657-16.364-9.436-24.249-13.984-46.519-15.823V361.36c9.479-15.536 27.861-31.439 47.679-31.439 33.986 0 48.387 22.105 48.953 22.997a10 10 0 005.305 4.232l79.475 26.974c12.693 4.764 19.401 15.634 16.318 26.474a19.354 19.354 0 01-9.257 11.691 19.367 19.367 0 01-14.683 1.758l-89.593-28.392c-5.268-1.669-10.886 1.247-12.554 6.512-1.669 5.265 1.247 10.885 6.512 12.554l89.749 28.441c.095.03.19.059.286.086a39.657 39.657 0 0010.857 1.523c6.638 0 13.203-1.691 19.161-5.011 9.213-5.133 15.875-13.547 18.759-23.692.23-.81.434-1.62.611-2.43l75.083-20.8c10.844-3.704 25.079-5.039 31.417 9.558 6.56 17.137-10.49 26.564-14.922 28.678zM359.06 131.543c-.13-.64-.32-1.27-.58-1.88-.25-.6-.55-1.18-.92-1.72a9.57 9.57 0 00-1.24-1.52 9.57 9.57 0 00-1.52-1.24c-.54-.36-1.12-.67-1.72-.92a9.81 9.81 0 00-1.87-.57 9.898 9.898 0 00-3.91 0c-.64.12-1.27.32-1.87.57-.61.25-1.19.56-1.73.92-.55.36-1.06.78-1.52 1.24-.46.46-.88.97-1.24 1.52-.36.54-.67 1.12-.92 1.72a9.69 9.69 0 00-.57 1.88c-.13.64-.2 1.3-.2 1.95 0 .65.07 1.31.2 1.95.12.64.32 1.27.57 1.87.25.61.56 1.19.92 1.73.36.55.78 1.06 1.24 1.52.46.46.97.88 1.52 1.24.54.36 1.12.67 1.73.92.6.25 1.23.44 1.87.57s1.3.2 1.95.2c.65 0 1.31-.07 1.96-.2.63-.13 1.26-.32 1.87-.57.6-.25 1.18-.56 1.72-.92a9.57 9.57 0 001.52-1.24c.46-.46.88-.97 1.24-1.52.37-.54.67-1.12.92-1.73.26-.6.45-1.23.58-1.87.13-.64.19-1.3.19-1.95 0-.65-.06-1.31-.19-1.95z"/><path d="M502 33.891h-59.457c-5.523 0-10 4.477-10 10v8.634H404.66c-5.523 0-10 4.477-10 10v2.878c-16.254-1.419-21.6-4.501-36.527-13.109-11.48-6.62-28.831-16.625-60.078-30.674a8.51 8.51 0 00-.44-.185c-10.171-4.002-36.828-11.876-65.299 1.027l-40.24 14.408-33.919-33.918c-3.905-3.905-10.237-3.905-14.142 0L32.657 114.309c-3.602 3.603-4.293 9.85 0 14.143l190.287 190.287c3.045 3.046 10.175 3.967 14.143 0l101.665-101.664c2.643.228 5.386.351 8.229.351 26.126 0 49.236-17.922 62.457-37.456H502c5.523 0 10-4.477 10-10V43.891c0-5.523-4.477-10-10-10zm-350.915-9.726l22.792 22.792c-6.775 4.19-14.608 6.432-22.792 6.432-8.185 0-16.017-2.241-22.792-6.432l22.792-22.792zM76.663 144.173L53.871 121.38l22.792-22.792c4.19 6.775 6.432 14.608 6.432 22.792 0 8.184-2.241 16.017-6.432 22.793zm153.353 153.352l-22.788-22.788c13.913-8.586 31.661-8.586 45.575 0l-22.787 22.788zm37.195-37.194c-22.098-16.03-52.292-16.03-74.39 0L91.07 158.579c7.809-10.74 12.025-23.641 12.025-37.199 0-13.559-4.215-26.459-12.025-37.199l22.817-22.816c10.74 7.809 23.64 12.025 37.199 12.025 13.559 0 26.459-4.216 37.199-12.025l21.629 21.629a39.465 39.465 0 00-13.462 4.592c-7.168 3.994-12.792 9.975-16.294 17.211a56.985 56.985 0 00-29.915 15.741c-22.225 22.226-22.225 58.389.001 80.615 11.112 11.112 25.709 16.669 40.307 16.669 14.597 0 29.195-5.556 40.308-16.669 7.23-7.23 12.295-16.116 14.832-25.8l33.764 11.459c-3.801 17.608.092 36.132 10.593 50.682l-22.837 22.837zm-60.798-98.313c.088.032.176.064.265.094l19.996 6.787c-1.51 6.815-4.927 13.081-9.957 18.112-14.428 14.426-37.904 14.428-52.33 0-14.428-14.427-14.428-37.902 0-52.33a36.977 36.977 0 0112.062-8.048c1.846 15.362 12.907 29.055 29.964 35.385zm98.044 61.066a43.739 43.739 0 01-6.389-20.796 77.755 77.755 0 0017.636 9.549l-11.247 11.247zm90.202-57.101c-9.478 15.538-27.86 31.441-47.678 31.441-3.708 0-7.183-.264-10.432-.734l-.039-.006c-21.596-3.137-33.213-15.411-37.042-20.271-.204-.3-1.073-1.437-1.202-1.626a9.964 9.964 0 00-5.511-4.583l-79.508-26.985c-12.688-4.762-19.395-15.627-16.321-26.463l.006-.021.007-.025a19.355 19.355 0 019.247-11.656 19.351 19.351 0 0114.683-1.757l89.593 28.391c5.266 1.671 10.886-1.247 12.554-6.512 1.668-5.265-1.247-10.885-6.512-12.554l-71.255-22.58-.622-.622-.019-.019-36.89-36.89 31.708-11.354c.107-.039.239-.088.345-.131l.105-.042a9.59 9.59 0 00.403-.174c21.436-9.852 41.812-3.955 49.799-.849 30.183 13.581 46.293 22.87 58.063 29.657 16.364 9.437 24.249 13.984 46.518 15.823v80.542zm37.884-6.015H414.66V72.525h17.883v87.443zm59.457 0h-39.457V53.891H492v106.077z"/></svg><svg viewBox="0 0 512 512" id="shipped" xmlns="http://www.w3.org/2000/svg"><path d="M476.158 231.363l-13.259-53.035c3.625-.77 6.345-3.986 6.345-7.839v-8.551c0-18.566-15.105-33.67-33.67-33.67h-60.392V110.63c0-9.136-7.432-16.568-16.568-16.568H50.772c-9.136 0-16.568 7.432-16.568 16.568V256a8.017 8.017 0 0016.034 0V110.63c0-.295.239-.534.534-.534h307.841c.295 0 .534.239.534.534v145.372a8.017 8.017 0 0016.034 0v-9.088h94.569l.021.002.022-.001c11.637.008 21.518 7.646 24.912 18.171h-24.928a8.017 8.017 0 00-8.017 8.017v17.102c0 13.851 11.268 25.119 25.119 25.119h9.086v35.273h-20.962c-6.886-19.883-25.787-34.205-47.982-34.205s-41.097 14.322-47.982 34.205h-3.86v-60.393a8.017 8.017 0 00-16.034 0v60.391H192.817c-6.886-19.883-25.787-34.205-47.982-34.205s-41.097 14.322-47.982 34.205H50.772a.534.534 0 01-.534-.534v-17.637h34.739a8.017 8.017 0 000-16.034H8.017a8.017 8.017 0 000 16.034h26.188v17.637c0 9.136 7.432 16.568 16.568 16.568h43.304c-.002.178-.014.355-.014.534 0 27.996 22.777 50.772 50.772 50.772s50.772-22.776 50.772-50.772c0-.18-.012-.356-.014-.534h180.67c-.002.178-.014.355-.014.534 0 27.996 22.777 50.772 50.772 50.772 27.995 0 50.772-22.776 50.772-50.772 0-.18-.012-.356-.014-.534h26.203a8.017 8.017 0 008.017-8.017v-85.511c.001-21.112-15.576-38.653-35.841-41.738zm-100.976-87.062h60.392c9.725 0 17.637 7.912 17.637 17.637v.534h-78.029v-18.171zm0 86.58v-52.376h71.235l13.094 52.376h-84.329zM144.835 401.904c-19.155 0-34.739-15.583-34.739-34.739s15.584-34.739 34.739-34.739c19.155 0 34.739 15.583 34.739 34.739s-15.584 34.739-34.739 34.739zm282.188 0c-19.155 0-34.739-15.583-34.739-34.739s15.584-34.739 34.739-34.739c19.155 0 34.739 15.583 34.739 34.739s-15.584 34.739-34.739 34.739zm68.944-102.614h-9.086c-5.01 0-9.086-4.076-9.086-9.086v-9.086h18.171v18.172z"/><path d="M144.835 350.597c-9.136 0-16.568 7.432-16.568 16.568 0 9.136 7.432 16.568 16.568 16.568 9.136 0 16.568-7.432 16.568-16.568 0-9.136-7.432-16.568-16.568-16.568zM427.023 350.597c-9.136 0-16.568 7.432-16.568 16.568 0 9.136 7.432 16.568 16.568 16.568 9.136 0 16.568-7.432 16.568-16.568 0-9.136-7.432-16.568-16.568-16.568zM332.96 316.393H213.244a8.017 8.017 0 000 16.034H332.96a8.017 8.017 0 000-16.034zM127.733 282.188H25.119a8.017 8.017 0 000 16.034h102.614a8.017 8.017 0 000-16.034zM278.771 173.37a8.017 8.017 0 00-11.337.001l-71.292 71.291-37.087-37.087a8.016 8.016 0 00-11.337 0 8.016 8.016 0 000 11.337l42.756 42.756c1.565 1.566 3.617 2.348 5.668 2.348s4.104-.782 5.668-2.348l76.96-76.96a8.018 8.018 0 00.001-11.338z"/></svg></svg>